<?xml version="1.0" encoding="UTF-8"?>
<svg width="56px" height="56px" viewBox="0 0 56 56" version="1.1" xmlns="http://www.w3.org/2000/svg" xmlns:xlink="http://www.w3.org/1999/xlink">
    <!-- Generator: Sketch 50.2 (55047) - http://www.bohemiancoding.com/sketch -->
    <title>icon/56x56px/授课/关闭</title>
    <desc>Created with Sketch.</desc>
    <defs>
        <circle id="path-1" cx="28" cy="28" r="27"></circle>
        <filter x="-13.0%" y="-9.3%" width="125.9%" height="125.9%" filterUnits="objectBoundingBox" id="filter-2">
            <feOffset dx="0" dy="2" in="SourceAlpha" result="shadowOffsetOuter1"></feOffset>
            <feGaussianBlur stdDeviation="2" in="shadowOffsetOuter1" result="shadowBlurOuter1"></feGaussianBlur>
            <feComposite in="shadowBlurOuter1" in2="SourceAlpha" operator="out" result="shadowBlurOuter1"></feComposite>
            <feColorMatrix values="0 0 0 0 0   0 0 0 0 0   0 0 0 0 0  0 0 0 0.1 0" type="matrix" in="shadowBlurOuter1"></feColorMatrix>
        </filter>
    </defs>
    <g id="icon/56x56px/授课/关闭" stroke="none" stroke-width="1" fill="none" fill-rule="evenodd">
        <g id="Oval">
            <use fill="black" fill-opacity="1" filter="url(#filter-2)" xlink:href="#path-1"></use>
            <circle stroke-opacity="0.1" stroke="#000000" stroke-width="1" stroke-linejoin="square" fill-opacity="0.9" fill="#FFFFFF" fill-rule="evenodd" cx="28" cy="28" r="26.5"></circle>
        </g>
        <path d="M26,26 L26,16 C26,14.8954305 26.8954305,14 28,14 C29.1045695,14 30,14.8954305 30,16 L30,26 L40,26 C41.1045695,26 42,26.8954305 42,28 C42,29.1045695 41.1045695,30 40,30 L30,30 L30,40 C30,41.1045695 29.1045695,42 28,42 C26.8954305,42 26,41.1045695 26,40 L26,30 L16,30 C14.8954305,30 14,29.1045695 14,28 C14,26.8954305 14.8954305,26 16,26 L26,26 Z" id="Combined-Shape" fill="#D94C4C" transform="translate(28.000000, 28.000000) rotate(45.000000) translate(-28.000000, -28.000000) "></path>
    </g>
</svg>