<?xml version="1.0" encoding="UTF-8"?>
<svg width="56px" height="56px" viewBox="0 0 56 56" version="1.1" xmlns="http://www.w3.org/2000/svg" xmlns:xlink="http://www.w3.org/1999/xlink">
    <!-- Generator: Sketch 50.2 (55047) - http://www.bohemiancoding.com/sketch -->
    <title>icon/56x56px/授课/重置-press</title>
    <desc>Created with Sketch.</desc>
    <defs>
        <circle id="path-1" cx="27" cy="27" r="27"></circle>
        <filter x="-13.0%" y="-9.3%" width="125.9%" height="125.9%" filterUnits="objectBoundingBox" id="filter-2">
            <feOffset dx="0" dy="2" in="SourceAlpha" result="shadowOffsetOuter1"></feOffset>
            <feGaussianBlur stdDeviation="2" in="shadowOffsetOuter1" result="shadowBlurOuter1"></feGaussianBlur>
            <feComposite in="shadowBlurOuter1" in2="SourceAlpha" operator="out" result="shadowBlurOuter1"></feComposite>
            <feColorMatrix values="0 0 0 0 0   0 0 0 0 0   0 0 0 0 0  0 0 0 0.1 0" type="matrix" in="shadowBlurOuter1"></feColorMatrix>
        </filter>
    </defs>
    <g id="icon/56x56px/授课/重置-press" stroke="none" stroke-width="1" fill="none" fill-rule="evenodd">
        <g id="重置" transform="translate(1.000000, 1.000000)">
            <g id="Oval">
                <use fill="black" fill-opacity="1" filter="url(#filter-2)" xlink:href="#path-1"></use>
                <circle stroke-opacity="0.1" stroke="#000000" stroke-width="1" stroke-linejoin="square" fill-opacity="0.9" fill="#F1F2F6" fill-rule="evenodd" cx="27" cy="27" r="26.5"></circle>
            </g>
            <path d="M37.6766179,31.676936 C38.3546127,32.0819391 38.5776109,32.9659459 38.175614,33.6469511 C35.838632,37.5669813 31.5566649,40 26.9997,40 C19.8317551,40 13.9998,34.1679551 13.9998,26.9999 C13.9998,26.4168955 14.3477973,25.8948915 14.8867932,25.6728898 C15.428789,25.4488881 16.0447843,25.572889 16.4537811,25.9848922 L19.7317559,29.2619174 C20.2917516,29.8219217 20.2927516,30.7339287 19.7347559,31.293933 C19.2397597,31.7899368 18.4707656,31.8489373 17.9107699,31.4689344 C19.583757,34.8809606 23.0727302,37.1249779 26.9997,37.1249779 C30.5496727,37.1249779 33.884647,35.2289633 35.703633,32.1759398 C35.8996315,31.8469373 36.2106291,31.6139355 36.5826263,31.5179348 C36.9526234,31.422934 37.3426204,31.4779344 37.6746179,31.675936 L37.6766179,31.676936 Z M26.9999,14 C34.1678449,14 39.9998,19.8320449 39.9998,27.0001 C39.9998,27.5831045 39.6518027,28.1041085 39.1128068,28.3281102 C38.9368082,28.4001108 38.7518096,28.4381111 38.5628111,28.4381111 C38.184814,28.4381111 37.8138168,28.2841099 37.5468189,28.0171078 L33.9658464,24.4360803 C33.4048507,23.875076 33.4048507,22.9620689 33.9658464,22.4020646 C34.5248421,21.8420603 35.4368351,21.8410603 35.9978308,22.4020646 L36.0518304,22.456065 C34.3628434,19.0860391 30.89587,16.8750221 26.9999,16.8750221 C23.09693,16.8750221 19.6069569,19.0560389 17.89497,22.5660659 C17.7279713,22.9110685 17.4349736,23.1700705 17.0699764,23.2950715 C16.7069792,23.4220725 16.3149822,23.3970723 15.9709848,23.226071 C15.6279875,23.0590697 15.3689895,22.7670674 15.2439904,22.4040646 C15.1189914,22.0410619 15.1429912,21.6500588 15.3109899,21.3050562 C17.508973,16.7990215 21.9879386,14 26.9999,14 Z" id="Combined-Shape" fill="#8B8D99"></path>
        </g>
    </g>
</svg>